<?xml version="1.0" encoding="utf-8"?>
<!-- Svg Vector Icons : http://www.onlinewebfonts.com/icon -->
<!DOCTYPE svg PUBLIC "-//W3C//DTD SVG 1.1//EN" "http://www.w3.org/Graphics/SVG/1.1/DTD/svg11.dtd">
<svg version="1.1" xmlns="http://www.w3.org/2000/svg" xmlns:xlink="http://www.w3.org/1999/xlink" x="0px" y="0px" viewBox="0 0 1000 1000" enable-background="new 0 0 1000 1000" xml:space="preserve">
<metadata> Svg Vector Icons : http://www.onlinewebfonts.com/icon </metadata>
<g><g><path d="M867.7,855.5c-9.2,4.2-17.6,8.1-25.6,11.1c-7.4,2.8-15.3,5.2-23,6.8c-41.8,8.8-76.8-3.9-96.2-36.1c-18.1-30.1-29-63.4-29.3-98.2c-0.8-102.5,0.5-205,0.8-307.5c0.3-89.2,1-178.4,0.2-267.6c-0.4-51.3-25.6-89.3-72.1-109.6c-58-25.3-113.7-15.9-165.3,19.9c-2.8,2-5.5,4.2-7.2,5.5C377.5,23,306.7,31.8,235.5,79.7C170.7,15.2,51.8,36.9,10,99.7c7.5,0.3,14.6,0.6,21.7,1c33.4,1.6,55.4,18.3,64.5,49.1v533.6h171.9c0-12.9,0-25.7,0-38.6c0-32,0-64.1,0-96.1c0-41.5,0-82.9,0-124.4c0-41.1,0-82.2,0-123.3c0-28.6-0.8-57.3-0.5-85.9c0.1-13.3,0-26.7,1.5-39.9c1.4-12.2,4-26.2,10.7-36.7c2.4-3.8,6.7-7.9,11.3-8.8c6.4-1.2,11.1,3.2,13.5,8.6c5.9,13.4,8.8,29.1,8.9,43.7c0.4,163.3,0.4,326.7,0.4,490c0,4.1,0,11.5,0,11.5h162.7c0.2,0,0.5-5.2,0.6-7.7c1.2-61.5,2.6-122.6,3.5-184.1c1-64.4,1.6-128.6,2.1-193c0.3-42.4-0.5-84.8,0.5-127.2c0.3-11,4.2-22.3,8.7-32.5c1.9-4.3,9.9-8.8,14.5-8.3c4.6,0.5,11,6.7,12.2,11.4c3.8,14.8,7.6,30.2,7.7,45.3c0.5,146.4-0.1,292.8,0.4,439.3c0.1,39.5,1.9,79.1,5.1,118.5c3.1,38.8,11.2,77,29.6,111.8c23.8,45.2,56.9,81.3,108.4,93.5c53.7,12.7,107.8,10.4,161.1-4.2c24.5-6.7,46.3-18.8,64.2-38.6c9.7,17.7,18.7,34.2,28.6,52.4c10.5-28,22.9-54.2,32.9-80.3c10.1-26.4,21.9-52.7,33.4-79.1v-2.2c-57.3-1.9-103.1-3.8-155.5-5.8C846.5,814.3,856.2,834.5,867.7,855.5z"/></g><g></g><g></g><g></g><g></g><g></g><g></g><g></g><g></g><g></g><g></g><g></g><g></g><g></g><g></g><g></g></g>
</svg>